<?xml version="1.0" standalone="no"?>
<!DOCTYPE svg PUBLIC "-//W3C//DTD SVG 20010904//EN"
 "http://www.w3.org/TR/2001/REC-SVG-20010904/DTD/svg10.dtd">
<svg version="1.0" xmlns="http://www.w3.org/2000/svg"
 width="1280.000000pt" height="1280.000000pt" viewBox="0 0 1280.000000 1280.000000"
 preserveAspectRatio="xMidYMid meet">
<metadata>
Created by potrace 1.15, written by Peter Selinger 2001-2017
</metadata>
<g transform="translate(0.000000,1280.000000) scale(0.100000,-0.100000)"
fill="#ffffff" stroke="none">
<path d="M8683 11263 c9 -2 23 -2 30 0 6 3 -1 5 -18 5 -16 0 -22 -2 -12 -5z"/>
<path d="M8800 11250 c0 -5 12 -10 28 -10 21 0 24 2 12 10 -20 13 -40 13 -40
0z"/>
<path d="M8363 11213 c9 -2 25 -2 35 0 9 3 1 5 -18 5 -19 0 -27 -2 -17 -5z"/>
<path d="M9315 11086 c-22 -6 -39 -16 -37 -21 2 -5 -5 -12 -15 -16 -17 -7 -17
-7 2 -16 11 -4 63 -37 115 -71 52 -34 151 -90 219 -123 82 -39 136 -73 159
-97 19 -20 60 -54 91 -75 66 -45 45 -41 -87 17 -53 24 -141 58 -194 75 -54 18
-98 35 -98 37 0 3 10 3 23 0 61 -15 -57 28 -136 50 -51 14 -115 32 -144 40
-126 37 -303 60 -582 74 -196 10 -266 9 -506 -5 -74 -5 -78 -4 -55 9 l25 15
-28 1 c-45 0 -170 -21 -192 -33 -11 -6 -54 -12 -95 -12 -41 -1 -95 -5 -120 -9
-42 -7 -44 -6 -26 8 19 16 19 16 -6 16 -30 0 -47 -18 -29 -30 12 -7 -12 -20
-66 -35 -13 -3 -23 -10 -23 -15 0 -5 -30 -18 -67 -31 -116 -38 -272 -100 -279
-110 -3 -6 7 -4 22 4 32 16 256 91 319 106 22 6 73 22 114 36 75 26 111 31
111 17 0 -4 -45 -23 -101 -40 -122 -39 -291 -103 -286 -109 2 -2 48 13 101 32
53 19 114 35 134 35 21 0 62 6 92 14 124 31 265 28 157 -4 -50 -14 -244 -98
-269 -115 -10 -6 -15 -15 -11 -19 4 -4 -3 -9 -15 -13 -12 -3 -22 -9 -22 -14 0
-11 -6 -12 60 6 30 8 56 13 57 11 2 -2 -31 -18 -74 -35 -43 -18 -107 -47 -143
-66 -51 -27 -59 -34 -40 -35 52 0 147 32 215 74 106 66 104 65 305 106 516
106 842 132 1162 90 358 -46 630 -122 895 -251 112 -54 130 -67 216 -153 52
-52 109 -101 126 -110 17 -9 29 -21 26 -27 -4 -6 -21 -1 -43 13 -84 50 -230
149 -242 163 -7 8 -35 28 -64 43 -28 16 -77 45 -109 65 -33 20 -98 48 -145 62
-48 15 -98 30 -112 35 -34 10 -140 10 -140 0 0 -5 32 -21 70 -36 39 -15 69
-29 67 -30 -1 -2 -72 19 -157 46 -289 92 -246 85 -545 85 -148 0 -288 -4 -310
-9 l-40 -8 40 -18 c22 -10 58 -22 80 -26 36 -7 37 -8 13 -12 -63 -8 -21 -20
85 -24 64 -2 121 -9 132 -16 17 -11 14 -12 -25 -7 -32 3 -39 2 -25 -4 11 -5
34 -10 50 -10 51 -1 215 -43 209 -53 -4 -5 2 -8 12 -7 11 2 24 1 29 -2 6 -4
63 -23 129 -43 65 -21 116 -39 113 -42 -2 -3 -41 4 -85 15 -86 23 -116 26
-108 13 3 -5 31 -14 63 -22 32 -7 87 -23 123 -35 36 -13 85 -29 110 -35 167
-42 588 -242 738 -350 85 -61 99 -69 86 -48 -4 7 7 2 25 -11 27 -20 40 -25 71
-30 2 -1 -1 -6 -8 -13 -9 -9 -17 -7 -34 9 -25 22 -60 44 -43 26 20 -21 145
-123 149 -123 3 0 -14 18 -37 40 -23 22 -37 40 -31 40 6 0 71 -59 144 -130 73
-72 129 -122 126 -113 -8 26 89 -83 130 -144 40 -61 44 -79 12 -62 l-22 12 23
-34 c12 -19 29 -48 37 -66 7 -17 18 -34 24 -38 5 -3 15 -16 21 -28 11 -21 10
-21 -15 2 -14 14 -26 22 -26 20 0 -3 31 -68 69 -145 37 -77 72 -150 76 -163 5
-17 9 -20 15 -11 31 50 151 -316 165 -505 l6 -70 -16 40 c-9 22 -20 46 -24 54
-21 42 -26 -8 -26 -277 0 -263 -3 -302 -28 -462 -15 -96 -36 -213 -46 -260
l-20 -85 6 75 c2 41 16 156 30 255 41 289 42 542 4 745 -13 69 -41 203 -48
224 -3 12 -1 16 6 11 8 -5 10 2 5 22 -11 46 -106 285 -111 280 -2 -3 1 -15 7
-27 6 -12 9 -24 7 -27 -7 -6 -38 43 -110 172 -64 116 -103 170 -120 170 -7 0
-12 7 -12 15 0 8 -13 31 -28 51 -15 20 -27 41 -27 46 0 20 -24 32 -37 18 -8
-9 -9 -16 -3 -20 36 -22 230 -313 230 -344 0 -9 9 -31 20 -48 11 -18 17 -33
14 -33 -4 0 -1 -7 6 -15 6 -8 8 -20 4 -26 -4 -7 -3 -9 3 -6 6 4 14 -1 18 -11
19 -45 86 -250 90 -274 3 -16 12 -58 21 -94 22 -95 33 -219 44 -469 5 -136 5
-224 -1 -229 -5 -6 -9 -1 -9 13 0 12 -4 20 -10 16 -5 -3 -7 64 -3 182 4 143 2
217 -11 311 -23 179 -51 303 -86 381 -16 38 -30 74 -30 79 0 5 -30 72 -67 148
-37 77 -67 145 -66 151 0 7 -2 11 -6 9 -4 -3 -20 16 -35 40 -36 57 -44 51 -12
-8 14 -26 22 -48 20 -51 -3 -3 10 -36 29 -73 19 -38 47 -98 61 -134 15 -36 34
-79 42 -97 8 -17 14 -37 14 -45 0 -8 4 -18 9 -24 14 -13 39 -109 68 -264 35
-187 43 -487 18 -655 -18 -118 -36 -140 -29 -36 l3 56 -9 -50 c-5 -28 -6 -61
-1 -75 11 -35 -8 -165 -53 -350 -63 -260 -171 -560 -256 -711 -27 -48 -56
-102 -65 -120 -52 -111 -232 -358 -378 -519 -162 -180 -376 -385 -402 -385
-19 0 -165 -137 -158 -148 4 -6 1 -7 -6 -2 -9 5 -36 -15 -80 -58 -36 -35 -76
-70 -88 -76 -13 -6 -22 -15 -20 -19 1 -4 -18 -25 -43 -47 -25 -22 -38 -31 -30
-21 17 22 4 16 -32 -14 -13 -11 -47 -38 -76 -60 -29 -23 -50 -45 -47 -50 3 -6
-1 -7 -9 -4 -8 3 -19 -3 -26 -15 -6 -12 -16 -21 -23 -21 -7 0 -20 -8 -28 -17
-9 -10 -37 -34 -63 -53 -164 -123 -421 -354 -411 -370 2 -4 -8 -18 -23 -31
-14 -13 -20 -16 -13 -7 11 15 11 18 0 18 -19 0 -83 -40 -75 -47 3 -3 11 -2 19
3 16 11 -15 -16 -71 -63 -24 -19 -41 -38 -38 -41 3 -3 16 3 28 14 l23 19 -19
-23 c-11 -12 -26 -20 -33 -17 -8 3 -64 -39 -134 -100 -70 -62 -125 -102 -133
-99 -8 3 -17 0 -22 -7 -5 -9 -2 -10 9 -6 29 11 18 -7 -21 -35 -20 -14 -70 -56
-110 -92 -40 -37 -77 -64 -82 -61 -8 5 -46 -30 -100 -92 -14 -16 -18 -20 -9
-8 51 64 -5 24 -138 -102 -29 -26 -115 -106 -191 -178 -77 -71 -141 -136 -141
-143 -1 -7 -9 -15 -18 -19 -28 -10 -63 -45 -56 -56 3 -6 2 -7 -4 -4 -12 8
-139 -106 -250 -226 -48 -53 -151 -154 -228 -225 -77 -71 -208 -199 -291 -285
-144 -149 -152 -155 -168 -138 -16 17 -15 18 6 17 18 -1 70 46 213 194 104
107 176 184 160 170 -17 -13 -103 -98 -192 -187 l-161 -163 -119 109 c-65 59
-186 169 -270 242 -389 344 -480 425 -513 456 -19 18 -41 33 -49 33 -11 0 -10
-4 4 -13 11 -9 15 -19 10 -27 -5 -8 -4 -11 2 -7 6 4 16 0 23 -8 7 -8 9 -15 4
-15 -5 0 1 -6 12 -13 39 -22 163 -120 161 -126 -2 -3 33 -40 76 -81 43 -41 75
-66 72 -55 -4 11 2 7 12 -10 19 -28 139 -143 228 -217 44 -37 142 -141 110
-118 -11 8 -67 58 -125 110 -58 53 -121 107 -140 122 -19 14 -101 86 -181 159
-80 74 -191 174 -247 222 -58 50 -99 93 -96 99 4 7 2 8 -4 4 -12 -7 -95 62
-87 74 5 8 -46 57 -100 95 l-40 27 35 -30 c19 -18 31 -32 25 -32 -5 0 -26 16
-45 35 -19 19 -63 57 -97 83 -95 72 -250 206 -253 217 -3 18 -22 35 -31 29 -5
-3 -50 30 -101 73 -50 43 -137 115 -192 161 -56 46 -123 103 -151 127 -27 23
-88 74 -135 111 -47 37 -115 93 -151 124 -171 143 -344 286 -363 299 -36 24
106 -113 163 -158 30 -23 79 -64 108 -89 30 -26 83 -72 118 -102 34 -30 113
-95 175 -145 62 -49 153 -124 201 -165 49 -41 120 -100 158 -130 38 -30 106
-89 152 -131 46 -41 120 -104 164 -140 189 -151 355 -300 355 -317 0 -7 6 -12
14 -10 8 2 36 -18 63 -43 26 -25 77 -69 113 -98 36 -28 81 -66 100 -84 19 -19
98 -89 175 -158 77 -68 217 -193 311 -279 271 -246 342 -310 346 -310 2 0 116
111 254 247 356 351 390 379 109 88 -99 -103 -179 -192 -178 -199 2 -7 -16
-30 -39 -51 l-42 -40 37 44 c60 72 36 57 -54 -34 l-84 -85 -81 78 c-134 128
-294 267 -309 267 -7 0 -17 4 -22 9 -4 5 -3 6 5 2 6 -4 12 -3 12 2 0 5 -28 31
-62 58 -73 58 -85 65 -104 68 -21 3 -75 46 -70 55 7 10 -27 42 -47 45 -24 3
-118 87 -110 98 3 6 2 8 -4 5 -5 -4 -52 30 -103 73 -52 44 -97 80 -102 80 -4
0 -8 4 -8 10 0 14 31 1 65 -29 23 -20 22 -17 -6 12 -19 21 -43 39 -53 41 -9 1
-42 27 -74 57 l-57 54 50 -54 c69 -74 39 -54 -80 53 -56 50 -123 111 -150 136
-28 24 -52 45 -55 45 -14 1 -69 48 -67 58 1 6 -2 11 -8 12 -18 1 -149 102
-188 144 -21 23 -44 41 -51 41 -18 0 -68 55 -59 65 5 4 2 5 -4 1 -7 -4 -13 -2
-13 3 0 6 -8 11 -17 11 -10 0 -39 19 -64 43 -78 70 -272 228 -329 267 -140 95
-689 552 -1044 868 -39 35 -95 84 -124 110 -61 53 -201 182 -279 256 -88 84
-59 42 59 -86 62 -67 113 -124 113 -128 0 -3 16 -21 35 -39 19 -18 30 -31 23
-29 -10 3 -69 54 -273 243 -118 110 -117 101 5 -25 l120 -124 -110 103 c-318
298 -583 623 -721 886 -26 50 -58 104 -70 120 -20 26 -35 59 -76 165 -7 18
-11 21 -17 11 -9 -13 -33 40 -61 137 -7 23 -15 40 -18 38 -2 -3 3 -28 12 -58
17 -59 18 -74 5 -70 -13 3 -12 0 27 -95 69 -167 144 -303 286 -523 67 -104
286 -380 376 -475 37 -38 60 -64 53 -57 -8 6 -20 12 -25 12 -6 -1 3 -12 19
-26 17 -15 23 -23 15 -18 -9 4 -12 3 -7 -2 5 -5 13 -10 18 -10 5 -1 14 -2 19
-3 6 0 14 -10 18 -22 4 -11 55 -68 112 -127 58 -58 96 -100 85 -93 -28 19 45
-50 225 -215 205 -188 344 -307 650 -559 140 -115 377 -311 525 -435 149 -124
296 -245 327 -270 32 -25 57 -50 58 -56 0 -16 37 -47 48 -40 5 3 17 -3 27 -14
10 -11 15 -20 10 -20 -4 0 -2 -7 5 -15 18 -21 76 -62 66 -47 -16 26 11 10 60
-36 27 -26 46 -44 40 -40 -24 18 -27 6 -5 -19 13 -15 16 -21 6 -14 -9 8 -20
12 -23 9 -2 -3 12 -18 33 -33 21 -16 58 -47 83 -71 25 -23 87 -80 139 -125
115 -102 183 -166 156 -148 -10 8 -58 48 -105 89 -152 132 -794 667 -955 795
-55 44 -104 85 -110 91 -5 6 -98 81 -205 167 -235 189 -281 227 -553 455 -340
284 -519 444 -722 642 -104 102 -145 138 -90 80 102 -107 245 -245 415 -402
52 -49 91 -88 87 -88 -4 0 -34 24 -66 53 -32 28 -100 88 -151 132 -150 130
-436 429 -565 590 -296 369 -501 750 -645 1198 -12 37 -25 67 -30 67 -4 0 -10
8 -13 18 -2 9 -21 73 -42 142 -38 129 -79 310 -95 415 -5 33 -15 89 -24 125
-27 117 -47 337 -47 523 0 151 4 207 25 327 34 195 37 217 30 200 -3 -8 -8
-22 -11 -30 -3 -8 -5 -22 -4 -31 1 -9 -6 -22 -15 -30 -16 -13 -17 -11 -10 26
15 84 115 401 158 498 16 38 27 76 24 84 -6 15 17 69 52 128 11 17 38 65 62
107 24 43 48 74 53 71 6 -3 7 -1 3 5 -3 5 10 32 30 59 59 77 60 81 10 29 -25
-27 -50 -46 -54 -42 -4 4 2 14 12 21 10 8 19 23 20 35 0 11 4 20 9 20 13 -1
97 104 97 122 0 20 -20 2 -81 -75 -115 -144 -285 -406 -304 -467 -4 -14 -22
-47 -40 -75 -18 -27 -39 -70 -45 -95 -7 -25 -16 -50 -20 -55 -5 -6 -15 -31
-23 -55 -8 -25 -24 -74 -35 -110 -104 -326 -147 -756 -107 -1079 9 -68 17
-127 20 -130 2 -4 9 -47 15 -97 34 -269 142 -768 185 -850 8 -16 15 -35 15
-43 0 -40 171 -425 252 -566 62 -110 228 -356 274 -408 19 -20 34 -41 34 -47
0 -26 229 -280 454 -505 239 -239 382 -371 616 -570 58 -49 141 -121 185 -160
44 -39 125 -109 180 -155 55 -46 105 -89 110 -95 6 -6 21 -18 35 -27 14 -8 41
-29 60 -46 19 -16 89 -76 155 -132 66 -56 125 -108 130 -115 6 -6 44 -40 85
-74 41 -35 75 -68 75 -75 0 -6 5 -11 12 -11 7 0 18 -6 25 -14 10 -10 10 -12 1
-7 -7 4 -13 2 -13 -4 0 -6 8 -9 18 -6 13 4 30 -9 62 -47 25 -28 51 -52 58 -52
7 0 61 -44 120 -98 164 -150 452 -405 502 -446 24 -20 87 -78 140 -130 96 -96
86 -90 -56 31 -44 37 -119 102 -169 143 -131 110 -236 199 -455 385 -182 154
-261 217 -246 192 3 -6 50 -46 104 -88 138 -111 471 -392 508 -428 16 -17 88
-80 158 -141 71 -60 170 -146 221 -190 52 -44 181 -158 287 -254 106 -95 207
-182 223 -194 l30 -21 -20 24 c-11 14 8 1 43 -29 34 -29 62 -56 62 -61 0 -4
27 -28 60 -54 33 -26 60 -52 60 -58 0 -6 -6 -6 -15 2 -27 23 -15 4 17 -26 17
-16 28 -23 24 -16 -20 35 22 -3 159 -141 83 -83 196 -191 250 -239 55 -48 125
-109 155 -136 l56 -50 115 111 c63 62 132 133 152 158 20 25 62 66 92 90 30
24 55 48 55 54 0 11 653 656 711 702 19 16 86 81 148 145 62 65 123 120 134
124 12 3 43 27 68 52 26 26 84 79 129 117 45 39 128 111 184 161 55 49 163
143 238 208 76 64 140 121 143 127 10 16 25 10 18 -8 -4 -11 -3 -14 6 -9 7 5
10 14 7 21 -5 15 190 192 200 182 3 -3 63 44 132 104 117 101 155 128 136 97
-5 -7 15 7 44 30 29 24 55 49 59 55 3 7 -7 1 -23 -13 -54 -47 -74 -63 -74 -59
0 3 28 29 63 59 34 30 56 47 48 37 -9 -11 -10 -17 -2 -17 6 0 14 0 19 0 4 0 7
5 7 12 0 6 6 13 14 16 10 3 11 0 5 -9 -9 -15 2 -7 196 150 119 96 159 122 129
84 -13 -16 -12 -17 4 -4 9 8 15 16 12 19 -7 7 35 52 48 52 5 0 3 -8 -4 -17
-11 -15 -10 -15 8 1 13 10 21 22 18 26 -5 7 35 47 72 72 12 8 45 34 73 59 109
96 143 125 175 149 19 14 68 53 110 88 42 35 79 61 82 59 2 -3 -24 -29 -59
-57 -35 -29 -70 -60 -79 -69 -9 -9 -71 -61 -139 -116 -140 -114 -181 -150
-160 -138 8 4 18 8 22 8 4 0 58 43 119 95 61 52 131 109 154 125 89 63 389
337 600 549 209 210 423 452 495 561 43 65 81 106 92 99 4 -3 6 -10 2 -15 -3
-5 -10 -7 -15 -3 -6 3 -9 -2 -7 -12 2 -10 -2 -19 -9 -19 -6 0 -31 -27 -54 -60
-23 -33 -51 -70 -62 -82 -10 -12 -16 -26 -12 -33 3 -6 1 -9 -6 -8 -7 2 -15 -6
-17 -17 -2 -11 -16 -33 -31 -50 -15 -16 -35 -43 -45 -60 l-17 -30 21 25 c12
14 34 39 50 55 26 28 105 130 140 181 101 145 145 214 137 214 -2 0 -16 -18
-31 -40 -15 -23 -31 -38 -37 -35 -5 4 -7 11 -3 16 3 6 9 8 12 5 3 -4 17 12 32
34 15 22 29 38 32 35 7 -7 116 186 158 280 17 39 39 86 50 106 11 20 33 70 49
110 16 41 41 94 55 119 14 25 32 74 40 108 8 35 22 74 30 87 9 13 16 37 16 52
0 15 11 52 25 81 14 30 25 60 25 68 0 8 4 22 10 32 5 9 16 51 24 92 8 41 25
118 36 170 35 156 70 349 81 440 5 47 15 117 22 155 14 82 15 653 1 663 -5 4
-10 25 -12 47 -2 22 -9 67 -18 100 -8 33 -16 79 -18 101 -2 23 -9 51 -15 62
-6 11 -11 35 -11 52 0 44 -21 121 -31 115 -4 -3 -6 -13 -3 -23 2 -9 -2 -3 -10
13 -8 17 -15 36 -16 43 0 6 -6 12 -13 12 -11 0 -50 83 -69 148 -10 36 9 15 22
-24 7 -19 14 -33 17 -31 6 7 -86 225 -138 329 -22 43 -37 83 -34 87 2 5 -10
28 -28 52 -19 24 -70 98 -115 165 -92 138 -184 253 -189 237 -4 -11 -29 10
-209 181 -50 47 -93 86 -97 86 -4 0 -38 23 -77 50 -39 28 -75 50 -80 50 -6 0
-22 7 -35 16 -31 20 -33 9 -3 -15 20 -17 20 -18 2 -18 -10 0 -64 34 -119 75
-55 41 -116 81 -135 89 -41 17 -82 52 -74 64 3 5 -1 6 -9 3 -8 -3 -18 0 -23 7
-5 8 -3 10 7 5 8 -4 5 -1 -5 8 -41 33 -363 189 -478 231 -66 25 -126 49 -132
53 -6 5 -24 12 -40 16 -15 4 -26 9 -24 11 6 6 164 -37 287 -79 58 -20 107 -36
110 -36 2 0 -16 13 -40 30 -67 44 -231 95 -469 145 -116 25 -214 45 -218 44
-4 0 -25 -6 -47 -13z m563 -227 c16 -5 32 -19 35 -29 5 -19 4 -19 -47 0 -28
11 -52 20 -53 20 -2 0 -3 5 -3 10 0 13 29 13 68 -1z m82 -29 c18 -12 2 -12
-25 0 -13 6 -15 9 -5 9 8 0 22 -4 30 -9z m1113 -755 c20 -28 19 -27 -26 9 -45
37 -67 64 -67 82 0 11 67 -55 93 -91z m-9309 -260 c-4 -8 -11 -15 -16 -15 -6
0 -5 6 2 15 7 8 14 15 16 15 2 0 1 -7 -2 -15z m8917 -432 c13 -16 12 -17 -3
-4 -10 7 -18 15 -18 17 0 8 8 3 21 -13z m303 -502 c32 -88 29 -106 -3 -23 -12
31 -29 69 -37 84 -8 14 -14 32 -14 39 0 25 27 -25 54 -100z m216 -872 c1 -160
-11 -269 -30 -294 -4 -5 -10 -23 -13 -40 -18 -92 -25 -122 -35 -145 -15 -36
-14 -18 8 102 21 119 52 327 55 373 1 17 2 54 3 84 3 101 12 46 12 -80z m-221
-386 c-5 -21 -25 -112 -45 -203 -20 -91 -45 -187 -55 -215 -10 -27 -19 -56
-19 -63 0 -7 -10 -34 -21 -60 -20 -43 -45 -125 -53 -177 -5 -28 -34 -93 -35
-77 -1 7 6 26 14 42 13 26 13 30 1 30 -8 0 -16 -3 -19 -7 -9 -17 4 17 51 132
51 127 100 294 148 508 16 70 32 127 35 127 4 0 3 -17 -2 -37z m20 -15 c-14
-61 -20 -70 -14 -19 5 41 12 61 20 61 1 0 -1 -19 -6 -42z m108 -160 c-3 -8 -6
-5 -6 6 -1 11 2 17 5 13 3 -3 4 -12 1 -19z m-93 -134 c-16 -68 -29 -85 -20
-25 6 39 21 81 30 81 2 0 -2 -25 -10 -56z m-43 -140 c-10 -32 -19 -52 -20 -43
-1 19 30 112 35 106 2 -2 -4 -30 -15 -63z m-96 -153 c-21 -58 -44 -112 -51
-120 -7 -8 -3 11 10 43 13 32 34 93 47 137 13 43 26 72 27 63 2 -9 -13 -64
-33 -123z m66 48 c-5 -13 -10 -19 -10 -12 -1 15 10 45 15 40 3 -2 0 -15 -5
-28z m-67 -191 c-32 -76 -142 -298 -148 -298 -3 0 28 69 69 153 40 83 79 171
87 195 7 24 14 37 16 29 2 -8 -9 -44 -24 -79z m-153 -115 c-8 -15 -10 -15 -11
-2 0 17 10 32 18 25 2 -3 -1 -13 -7 -23z m-8877 -70 c15 -31 24 -58 22 -61 -5
-5 -56 92 -56 108 0 21 9 8 34 -47z m8816 -61 c0 -5 -7 -17 -15 -28 -14 -18
-14 -17 -4 9 12 27 19 34 19 19z m-55 -100 c-14 -26 -37 -61 -51 -77 l-26 -30
18 30 c73 123 110 170 59 77z m786 -129 c-12 -20 -14 -14 -5 12 4 9 9 14 11
11 3 -2 0 -13 -6 -23z m-896 -42 c-49 -68 -55 -65 -9 4 21 30 39 53 41 51 2
-2 -12 -27 -32 -55z m-60 -87 c-9 -14 -23 -33 -31 -42 -8 -9 -24 -28 -35 -42
-34 -42 -8 2 34 58 41 54 62 71 32 26z m868 -39 c-3 -9 -8 -14 -10 -11 -3 3
-2 9 2 15 9 16 15 13 8 -4z m-179 -297 c-4 -13 -17 -39 -30 -58 -27 -39 -33
-65 -8 -34 15 19 15 18 5 -2 -5 -11 -25 -36 -42 -55 -18 -19 -58 -68 -89 -109
-50 -67 -133 -159 -311 -345 -87 -91 -451 -431 -401 -374 14 16 20 32 16 43
-6 15 -13 12 -48 -21 -22 -22 -68 -61 -101 -88 -33 -27 -84 -71 -113 -97 -29
-26 -67 -57 -85 -69 -47 -32 65 74 160 151 185 150 420 372 613 579 58 62 134
142 170 179 68 70 172 193 231 274 39 54 43 57 33 26z m-8164 -603 c19 -19 32
-35 29 -35 -3 0 -20 16 -39 35 -19 19 -32 35 -29 35 3 0 20 -16 39 -35z m141
-132 c13 -16 12 -17 -3 -4 -10 7 -18 15 -18 17 0 8 8 3 21 -13z m-76 -233 c10
-11 16 -20 13 -20 -3 0 -13 9 -23 20 -10 11 -16 20 -13 20 3 0 13 -9 23 -20z
m7175 -54 c0 -2 -8 -10 -17 -17 -16 -13 -17 -12 -4 4 13 16 21 21 21 13z
m-6995 -104 c-3 -3 -18 7 -33 23 l-27 28 33 -23 c18 -12 31 -25 27 -28z m5530
-26 c-9 -13 -24 -27 -33 -31 -10 -4 -5 6 12 24 36 37 42 39 21 7z m-5494 -3
c13 -16 12 -17 -3 -4 -10 7 -18 15 -18 17 0 8 8 3 21 -13z m104 -84 l30 -33
-42 33 c-48 36 -67 59 -37 43 11 -6 33 -25 49 -43z m6490 -39 c-10 -11 -23
-20 -29 -20 -6 1 0 10 13 20 30 26 39 26 16 0z m-1205 6 c0 -2 -8 -10 -17 -17
-16 -13 -17 -12 -4 4 13 16 21 21 21 13z m-4979 -223 c13 -16 12 -17 -3 -4
-17 13 -22 21 -14 21 2 0 10 -8 17 -17z m49 -38 c13 -14 21 -25 18 -25 -2 0
-15 11 -28 25 -13 14 -21 25 -18 25 2 0 15 -11 28 -25z m51 -42 c13 -16 12
-17 -3 -4 -17 13 -22 21 -14 21 2 0 10 -8 17 -17z m184 -153 c10 -11 16 -20
13 -20 -3 0 -13 9 -23 20 -10 11 -16 20 -13 20 3 0 13 -9 23 -20z m5355 -13
c0 -2 -12 -14 -27 -28 l-28 -24 24 28 c23 25 31 32 31 24z m-5305 -27 c10 -11
16 -20 13 -20 -3 0 -13 9 -23 20 -10 11 -16 20 -13 20 3 0 13 -9 23 -20z
m3940 -60 c-16 -16 -31 -28 -33 -25 -4 4 48 54 57 55 3 0 -8 -13 -24 -30z
m-3804 -57 c13 -16 12 -17 -3 -4 -17 13 -22 21 -14 21 2 0 10 -8 17 -17z m195
-154 c66 -53 173 -143 240 -200 66 -57 140 -121 165 -142 24 -21 38 -35 30
-31 -9 5 -12 3 -7 -5 4 -6 12 -9 17 -5 15 9 213 -162 204 -176 -2 -4 10 -20
28 -36 l32 -29 -29 33 c-40 44 -19 41 25 -4 24 -25 28 -33 14 -28 -20 7 -20 7
-1 -15 12 -13 26 -19 35 -16 13 5 13 4 4 -6 -15 -15 -23 -8 -170 136 -50 50
-96 90 -101 90 -15 0 -72 47 -72 59 0 6 -38 42 -83 79 -235 194 -507 427 -507
434 0 3 13 -6 29 -19 16 -13 82 -66 147 -119z m3444 48 c0 -2 -12 -14 -27 -28
l-28 -24 24 28 c23 25 31 32 31 24z m-120 -117 c0 -5 -5 -10 -11 -10 -5 0 -7
5 -4 10 3 6 8 10 11 10 2 0 4 -4 4 -10z m-2929 -147 l24 -26 -32 23 c-34 25
-39 30 -25 30 5 0 19 -12 33 -27z m525 -15 l29 -31 -32 22 c-35 23 -50 41 -35
41 4 0 21 -14 38 -32z m-336 -146 c0 17 23 -6 26 -27 2 -13 -1 -13 -26 0 -16
8 -32 20 -36 26 -4 8 0 8 15 0 16 -9 21 -9 21 1z m61 -39 c13 -16 12 -17 -3
-4 -10 7 -18 15 -18 17 0 8 8 3 21 -13z m2329 7 c0 -5 -5 -10 -11 -10 -5 0 -7
5 -4 10 3 6 8 10 11 10 2 0 4 -4 4 -10z m-89 -95 c-17 -20 -61 -64 -98 -98
-60 -55 -56 -50 27 40 52 56 96 100 99 98 2 -2 -10 -20 -28 -40z m-2086 -193
c-3 -3 -11 0 -18 7 -9 10 -8 11 6 5 10 -3 15 -9 12 -12z m31 -14 c4 -7 3 -8
-4 -4 -7 4 -12 2 -12 -4 0 -6 -5 -8 -11 -4 -8 4 -7 9 2 15 18 11 17 11 25 -3z
m118 -87 c44 -39 104 -91 131 -117 28 -26 52 -48 55 -48 6 -1 58 -47 241 -211
36 -33 108 -96 159 -140 52 -44 158 -142 237 -217 79 -76 148 -138 154 -138 6
0 42 -30 80 -67 l70 -67 107 105 c59 57 136 131 171 164 54 51 60 54 34 20
-59 -77 -289 -320 -306 -323 -20 -4 -107 65 -104 81 1 7 -4 11 -11 9 -6 -1
-54 38 -105 87 -50 49 -110 104 -132 121 -22 18 -40 38 -40 46 0 7 -7 19 -15
26 -12 11 -12 10 0 -7 15 -20 15 -20 -10 -1 -14 11 -47 41 -75 67 -120 115
-192 179 -200 179 -4 0 -39 32 -78 71 -39 39 -94 89 -124 111 -29 22 -50 44
-47 49 3 5 -2 9 -10 9 -9 0 -23 11 -32 25 -9 14 -21 25 -28 25 -6 0 -33 23
-61 50 -27 28 -55 50 -61 50 -6 0 -19 10 -30 22 -12 14 -14 19 -4 13 8 -4 -1
6 -20 23 -19 16 -38 28 -41 26 -3 -2 -6 3 -6 11 0 26 18 17 101 -54z m607 -88
c13 -16 12 -17 -3 -4 -10 7 -18 15 -18 17 0 8 8 3 21 -13z m-746 -235 l30 -33
-40 35 c-22 19 -44 39 -50 44 -5 5 -1 4 10 -2 11 -6 33 -25 50 -44z m1195 -69
c0 -6 -4 -7 -10 -4 -5 3 -10 11 -10 16 0 6 5 7 10 4 6 -3 10 -11 10 -16z
m-885 -209 c10 -11 16 -20 13 -20 -3 0 -13 9 -23 20 -10 11 -16 20 -13 20 3 0
13 -9 23 -20z m1365 -23 c0 -2 -10 -12 -22 -23 l-23 -19 19 23 c18 21 26 27
26 19z"/>
<path d="M5935 2480 c10 -11 20 -20 23 -20 3 0 -3 9 -13 20 -10 11 -20 20 -23
20 -3 0 3 -9 13 -20z"/>
<path d="M7568 10913 c7 -3 16 -2 19 1 4 3 -2 6 -13 5 -11 0 -14 -3 -6 -6z"/>
<path d="M3884 10842 c5 -8 76 -4 76 4 0 2 -18 4 -41 4 -22 0 -38 -4 -35 -8z"/>
<path d="M3220 10790 c-9 -6 -10 -10 -3 -10 6 0 15 5 18 10 8 12 4 12 -15 0z"/>
<path d="M7240 10739 c-124 -52 -317 -149 -331 -166 -7 -7 -16 -13 -21 -13 -6
0 -65 -33 -132 -72 -66 -40 -129 -76 -140 -81 -39 -16 -212 -161 -228 -192
-11 -19 -10 -19 8 -5 10 8 48 44 84 78 36 35 74 68 85 74 11 6 -32 -41 -95
-104 -63 -64 -135 -139 -160 -169 l-44 -54 60 58 c33 31 63 57 67 57 5 0 -6
-21 -23 -47 -21 -33 23 8 137 123 159 163 239 234 261 234 5 0 21 9 34 20 42
32 254 148 413 226 163 79 177 97 25 33z"/>
<path d="M9008 10763 c6 -2 18 -2 25 0 6 3 1 5 -13 5 -14 0 -19 -2 -12 -5z"/>
<path d="M4630 10749 c32 -13 122 -30 127 -25 7 6 -102 36 -129 35 l-23 0 25
-10z"/>
<path d="M9108 10733 c7 -3 16 -2 19 1 4 3 -2 6 -13 5 -11 0 -14 -3 -6 -6z"/>
<path d="M7905 10685 c-40 -18 -21 -18 35 -1 32 10 38 15 20 15 -14 0 -38 -6
-55 -14z"/>
<path d="M8253 10693 c20 -2 54 -2 75 0 20 2 3 4 -38 4 -41 0 -58 -2 -37 -4z"/>
<path d="M8188 10683 c7 -3 16 -2 19 1 4 3 -2 6 -13 5 -11 0 -14 -3 -6 -6z"/>
<path d="M2940 10630 c-8 -5 -10 -10 -5 -10 6 0 17 5 25 10 8 5 11 10 5 10 -5
0 -17 -5 -25 -10z"/>
<path d="M10590 10627 c0 -2 37 -37 82 -78 48 -43 75 -62 65 -46 l-18 28 23
-11 c34 -18 -24 33 -89 75 -48 32 -63 40 -63 32z"/>
<path d="M2870 10600 c-8 -5 -10 -10 -5 -10 6 0 17 5 25 10 8 5 11 10 5 10 -5
0 -17 -5 -25 -10z"/>
<path d="M10617 10555 c10 -13 21 -25 26 -25 11 0 -16 39 -31 45 -8 3 -6 -4 5
-20z"/>
<path d="M9967 10529 c7 -7 15 -10 18 -7 3 3 -2 9 -12 12 -14 6 -15 5 -6 -5z"/>
<path d="M10800 10450 c14 -10 27 -17 29 -14 6 5 -31 33 -44 33 -5 1 1 -8 15
-19z"/>
<path d="M5725 10390 c3 -5 14 -10 23 -10 15 0 15 2 2 10 -20 13 -33 13 -25 0z"/>
<path d="M2865 10320 c-3 -5 -2 -10 4 -10 5 0 13 5 16 10 3 6 2 10 -4 10 -5 0
-13 -4 -16 -10z"/>
<path d="M5300 10310 c8 -5 20 -10 25 -10 6 0 3 5 -5 10 -8 5 -19 10 -25 10
-5 0 -3 -5 5 -10z"/>
<path d="M5920 10256 c0 -2 8 -10 18 -17 15 -13 16 -12 3 4 -13 16 -21 21 -21
13z"/>
<path d="M11100 10223 c0 -5 12 -20 26 -34 24 -21 26 -22 16 -3 -13 25 -42 50
-42 37z"/>
<path d="M9444 10186 c11 -9 29 -16 40 -16 17 1 18 2 6 9 -8 5 -26 12 -40 15
-24 7 -24 6 -6 -8z"/>
<path d="M9835 10123 c6 -5 53 -39 105 -76 52 -36 128 -93 169 -126 41 -33 77
-59 80 -58 13 3 51 -25 46 -33 -3 -5 16 -25 42 -46 55 -44 81 -60 44 -27 -14
12 -22 25 -19 28 3 4 23 -9 45 -27 68 -61 189 -152 163 -124 -14 15 -24 30
-22 33 8 12 -101 114 -147 138 -28 14 -88 54 -134 89 -104 80 -234 164 -317
206 -36 18 -60 28 -55 23z m441 -314 c19 -22 19 -22 -3 -10 -24 12 -39 31 -25
31 5 0 17 -10 28 -21z m199 -129 c10 -11 16 -20 13 -20 -3 0 -13 9 -23 20 -10
11 -16 20 -13 20 3 0 13 -9 23 -20z"/>
<path d="M9970 10090 c0 -5 5 -10 11 -10 5 0 7 5 4 10 -3 6 -8 10 -11 10 -2 0
-4 -4 -4 -10z"/>
<path d="M10071 10097 c2 -1 13 -9 24 -17 19 -14 19 -14 6 3 -7 9 -18 17 -24
17 -6 0 -8 -1 -6 -3z"/>
<path d="M10120 10066 c0 -3 15 -15 33 -27 23 -17 28 -18 18 -6 -14 18 -51 42
-51 33z"/>
<path d="M10039 10041 c31 -23 81 -53 81 -48 0 6 -88 67 -97 67 -4 0 3 -9 16
-19z"/>
<path d="M10200 10007 c0 -2 21 -19 48 -37 64 -46 182 -151 179 -160 -1 -4 42
-54 97 -112 54 -58 112 -125 128 -149 16 -24 37 -48 46 -53 15 -9 16 -8 2 10
-37 49 -118 143 -157 185 -24 25 -43 52 -41 60 2 7 -7 18 -19 24 -13 5 -23 13
-23 17 0 11 -200 188 -232 204 -15 8 -28 13 -28 11z"/>
<path d="M1909 9913 l-34 -38 38 34 c20 19 37 36 37 38 0 8 -8 0 -41 -34z"/>
<path d="M10080 9906 c0 -2 14 -14 30 -26 17 -12 30 -19 30 -16 0 2 -13 14
-30 26 -16 12 -30 19 -30 16z"/>
<path d="M6110 9875 c-13 -14 -19 -25 -13 -25 12 0 48 38 41 45 -2 3 -15 -6
-28 -20z"/>
<path d="M10480 9823 c1 -12 37 -53 46 -53 4 0 24 -15 44 -32 19 -18 8 -5 -25
30 -61 64 -65 67 -65 55z"/>
<path d="M2279 9803 c-13 -16 -12 -17 4 -4 9 7 17 15 17 17 0 8 -8 3 -21 -13z"/>
<path d="M6270 9802 c0 -5 7 -15 15 -22 8 -7 15 -8 15 -2 0 5 -7 15 -15 22 -8
7 -15 8 -15 2z"/>
<path d="M10520 9736 c0 -2 8 -10 18 -17 15 -13 16 -12 3 4 -13 16 -21 21 -21
13z"/>
<path d="M10380 9655 c13 -14 26 -25 28 -25 3 0 -5 11 -18 25 -13 14 -26 25
-28 25 -3 0 5 -11 18 -25z"/>
<path d="M10595 9660 c10 -11 20 -20 23 -20 3 0 -3 9 -13 20 -10 11 -20 20
-23 20 -3 0 3 -9 13 -20z"/>
<path d="M10420 9614 c0 -7 92 -114 159 -183 46 -49 50 -51 26 -16 -15 22 -35
47 -44 55 -9 8 -44 45 -79 82 -34 37 -62 65 -62 62z"/>
<path d="M10670 9612 c0 -10 43 -52 53 -52 4 0 3 9 -3 20 -11 21 -50 46 -50
32z"/>
<path d="M10745 9520 c3 -5 11 -10 16 -10 6 0 7 5 4 10 -3 6 -11 10 -16 10 -6
0 -7 -4 -4 -10z"/>
<path d="M10390 9436 c0 -2 22 -28 49 -56 27 -28 48 -45 47 -36 -2 14 -96 104
-96 92z"/>
<path d="M10719 9410 c12 -19 38 -64 57 -100 53 -98 147 -248 139 -222 -3 12
-4 22 -1 22 10 0 67 -131 112 -255 51 -143 59 -136 10 9 -41 123 -184 420
-252 524 -8 12 -20 20 -25 16 -6 -3 -22 5 -37 17 l-26 24 23 -35z m102 -122
c45 -77 89 -163 89 -175 0 -9 -25 30 -69 112 -18 33 -45 80 -59 104 -14 25
-21 42 -15 38 6 -4 30 -39 54 -79z"/>
<path d="M11721 9435 c0 -5 6 -21 14 -35 8 -14 14 -20 14 -15 0 6 -6 21 -14
35 -8 14 -14 21 -14 15z"/>
<path d="M1530 9338 c-12 -22 -12 -22 6 -6 10 10 15 20 12 24 -4 3 -12 -5 -18
-18z"/>
<path d="M10610 9213 c0 -5 27 -59 59 -119 33 -60 76 -156 96 -214 43 -121 71
-180 87 -180 31 0 -42 245 -83 273 -10 8 -36 47 -57 88 -39 76 -102 170 -102
152z"/>
<path d="M10796 9137 c3 -10 9 -15 12 -12 3 3 0 11 -7 18 -10 9 -11 8 -5 -6z"/>
<path d="M11051 8934 c0 -11 3 -14 6 -6 3 7 2 16 -1 19 -3 4 -6 -2 -5 -13z"/>
<path d="M10835 8875 c70 -213 91 -292 110 -414 7 -47 13 -72 14 -54 2 81 -85
425 -120 473 -9 12 -10 11 -4 -5z"/>
<path d="M11071 8714 c0 -11 3 -14 6 -6 3 7 2 16 -1 19 -3 4 -6 -2 -5 -13z"/>
<path d="M11081 8674 c0 -11 3 -14 6 -6 3 7 2 16 -1 19 -3 4 -6 -2 -5 -13z"/>
<path d="M11111 8624 c0 -11 3 -14 6 -6 3 7 2 16 -1 19 -3 4 -6 -2 -5 -13z"/>
<path d="M10962 8340 c0 -19 2 -27 5 -17 2 9 2 25 0 35 -3 9 -5 1 -5 -18z"/>
<path d="M10962 8270 c0 -14 2 -19 5 -12 2 6 2 18 0 25 -3 6 -5 1 -5 -13z"/>
<path d="M10961 8214 c0 -11 3 -14 6 -6 3 7 2 16 -1 19 -3 4 -6 -2 -5 -13z"/>
<path d="M1381 7884 c0 -11 3 -14 6 -6 3 7 2 16 -1 19 -3 4 -6 -2 -5 -13z"/>
<path d="M1391 7814 c0 -11 3 -14 6 -6 3 7 2 16 -1 19 -3 4 -6 -2 -5 -13z"/>
<path d="M1402 7750 c0 -14 2 -19 5 -12 2 6 2 18 0 25 -3 6 -5 1 -5 -13z"/>
<path d="M10910 7706 c0 -13 -3 -39 -6 -57 -4 -19 -4 -32 -1 -29 10 9 24 110
16 110 -5 0 -9 -11 -9 -24z"/>
<path d="M1412 7695 c0 -16 2 -22 5 -12 2 9 2 23 0 30 -3 6 -5 -1 -5 -18z"/>
<path d="M1422 7635 c0 -16 2 -22 5 -12 2 9 2 23 0 30 -3 6 -5 -1 -5 -18z"/>
<path d="M1431 7590 c-2 -23 32 -186 36 -174 2 5 -5 50 -16 99 -10 50 -19 83
-20 75z"/>
<path d="M10871 7574 c0 -11 3 -14 6 -6 3 7 2 16 -1 19 -3 4 -6 -2 -5 -13z"/>
<path d="M1411 7510 c0 -8 4 -24 9 -35 5 -13 9 -14 9 -5 0 8 -4 24 -9 35 -5
13 -9 14 -9 5z"/>
<path d="M1472 7380 c0 -14 2 -19 5 -12 2 6 2 18 0 25 -3 6 -5 1 -5 -13z"/>
<path d="M1481 7334 c0 -11 3 -14 6 -6 3 7 2 16 -1 19 -3 4 -6 -2 -5 -13z"/>
<path d="M1461 7304 c0 -11 3 -14 6 -6 3 7 2 16 -1 19 -3 4 -6 -2 -5 -13z"/>
<path d="M1491 7294 c0 -11 3 -14 6 -6 3 7 2 16 -1 19 -3 4 -6 -2 -5 -13z"/>
<path d="M2011 7205 c1 -19 18 -51 18 -35 0 8 -4 22 -9 30 -5 8 -9 11 -9 5z"/>
<path d="M2051 7080 c0 -8 4 -24 9 -35 5 -13 9 -14 9 -5 0 8 -4 24 -9 35 -5
13 -9 14 -9 5z"/>
<path d="M1561 7024 c0 -11 3 -14 6 -6 3 7 2 16 -1 19 -3 4 -6 -2 -5 -13z"/>
<path d="M10709 7003 c-5 -14 -8 -30 -6 -36 1 -5 8 7 14 27 13 42 7 49 -8 9z"/>
<path d="M2080 6988 c0 -22 88 -226 90 -207 0 8 -80 202 -86 208 -2 2 -4 2 -4
-1z"/>
<path d="M10615 6781 c-3 -5 -1 -12 5 -16 5 -3 10 1 10 9 0 18 -6 21 -15 7z"/>
<path d="M1650 6772 c0 -16 32 -103 37 -99 5 5 -27 107 -33 107 -2 0 -4 -4 -4
-8z"/>
<path d="M1695 6640 c25 -86 295 -572 362 -650 18 -21 88 -111 160 -205 34
-44 85 -102 113 -130 36 -34 20 -11 -52 76 -111 133 -234 293 -265 345 -10 17
-52 87 -93 155 -41 68 -110 194 -153 279 -43 85 -76 144 -72 130z"/>
<path d="M10486 6553 c-6 -14 -5 -15 5 -6 7 7 10 15 7 18 -3 3 -9 -2 -12 -12z"/>
<path d="M2175 5885 c27 -38 76 -100 118 -149 39 -45 0 12 -57 84 -70 88 -102
122 -61 65z"/>
<path d="M2550 5745 c13 -14 26 -25 28 -25 3 0 -5 11 -18 25 -13 14 -26 25
-28 25 -3 0 5 -11 18 -25z"/>
<path d="M2430 5697 c0 -2 15 -16 33 -33 l32 -29 -29 33 c-28 30 -36 37 -36
29z"/>
<path d="M3010 5646 c0 -2 8 -10 18 -17 15 -13 16 -12 3 4 -13 16 -21 21 -21
13z"/>
<path d="M2380 5637 c0 -2 14 -16 31 -33 22 -20 28 -23 19 -8 -11 18 -50 50
-50 41z"/>
<path d="M9639 5613 c-13 -16 -12 -17 4 -4 16 13 21 21 13 21 -2 0 -10 -8 -17
-17z"/>
<path d="M3130 5535 c13 -14 26 -25 28 -25 3 0 -5 11 -18 25 -13 14 -26 25
-28 25 -3 0 5 -11 18 -25z"/>
<path d="M10850 5468 c-66 -75 -80 -102 -20 -38 44 47 77 91 68 90 -2 -1 -23
-24 -48 -52z"/>
<path d="M3340 5346 c0 -2 8 -10 18 -17 15 -13 16 -12 3 4 -13 16 -21 21 -21
13z"/>
<path d="M3440 5265 c23 -29 140 -131 140 -123 0 2 -37 38 -82 79 -46 41 -72
60 -58 44z"/>
<path d="M3335 5160 c3 -5 8 -10 11 -10 2 0 4 5 4 10 0 6 -5 10 -11 10 -5 0
-7 -4 -4 -10z"/>
<path d="M3450 5065 c33 -35 146 -130 279 -234 75 -58 10 3 -89 84 -40 33
-107 89 -149 124 -47 40 -63 50 -41 26z"/>
<path d="M3680 5026 c0 -2 8 -10 18 -17 15 -13 16 -12 3 4 -13 16 -21 21 -21
13z"/>
<path d="M3775 4944 c52 -50 250 -219 412 -351 51 -41 97 -72 102 -69 5 4 13
1 17 -5 5 -8 3 -9 -7 -4 -8 4 -1 -6 15 -23 17 -18 32 -32 35 -32 2 0 -6 11
-19 25 -13 14 -19 25 -13 25 11 0 51 -41 53 -55 1 -5 7 -9 12 -7 14 4 39 -18
33 -28 -3 -5 -1 -11 4 -14 5 -4 12 -3 15 2 6 10 -83 98 -134 133 -19 12 -87
67 -151 121 -64 53 -136 107 -159 119 -23 12 -72 50 -108 85 -37 35 -70 64
-74 64 -4 0 -24 14 -45 31 -24 20 -19 13 12 -17z"/>
<path d="M8464 4818 l-29 -33 33 29 c17 17 32 31 32 33 0 8 -8 1 -36 -29z"/>
<path d="M3835 4740 c10 -11 20 -20 23 -20 3 0 -3 9 -13 20 -10 11 -20 20 -23
20 -3 0 3 -9 13 -20z"/>
<path d="M2850 4716 c0 -2 8 -10 18 -17 15 -13 16 -12 3 4 -13 16 -21 21 -21
13z"/>
<path d="M3920 4666 c0 -2 7 -7 16 -10 8 -3 12 -2 9 4 -6 10 -25 14 -25 6z"/>
<path d="M4045 4566 c17 -14 35 -25 40 -25 11 0 -20 25 -50 41 -11 5 -6 -2 10
-16z"/>
<path d="M3010 4576 c0 -2 8 -10 18 -17 15 -13 16 -12 3 4 -13 16 -21 21 -21
13z"/>
<path d="M3000 4535 c13 -14 26 -25 28 -25 3 0 -5 11 -18 25 -13 14 -26 25
-28 25 -3 0 5 -11 18 -25z"/>
<path d="M3050 4496 c0 -2 8 -10 18 -17 15 -13 16 -12 3 4 -13 16 -21 21 -21
13z"/>
<path d="M4145 4480 c10 -11 20 -20 23 -20 3 0 -3 9 -13 20 -10 11 -20 20 -23
20 -3 0 3 -9 13 -20z"/>
<path d="M3124 4432 c8 -13 66 -56 66 -49 0 3 -17 17 -37 33 -20 15 -33 23
-29 16z"/>
<path d="M3200 4415 c13 -14 26 -25 28 -25 3 0 -5 11 -18 25 -13 14 -26 25
-28 25 -3 0 5 -11 18 -25z"/>
<path d="M3790 4416 c0 -2 8 -10 18 -17 15 -13 16 -12 3 4 -13 16 -21 21 -21
13z"/>
<path d="M4275 4380 c10 -11 20 -20 23 -20 3 0 -3 9 -13 20 -10 11 -20 20 -23
20 -3 0 3 -9 13 -20z"/>
<path d="M4465 4360 c3 -5 11 -10 16 -10 6 0 7 5 4 10 -3 6 -11 10 -16 10 -6
0 -7 -4 -4 -10z"/>
<path d="M3305 4330 c10 -11 20 -20 23 -20 3 0 -3 9 -13 20 -10 11 -20 20 -23
20 -3 0 3 -9 13 -20z"/>
<path d="M4335 4320 c10 -11 23 -20 28 -20 6 0 2 9 -8 20 -10 11 -23 20 -28
20 -6 0 -2 -9 8 -20z"/>
<path d="M4405 4270 c10 -11 20 -20 23 -20 3 0 -3 9 -13 20 -10 11 -20 20 -23
20 -3 0 3 -9 13 -20z"/>
<path d="M4520 4176 c0 -2 8 -10 18 -17 15 -13 16 -12 3 4 -13 16 -21 21 -21
13z"/>
<path d="M3545 4090 c-3 -5 -5 -10 -3 -11 2 0 12 -2 22 -4 10 -2 40 -23 65
-47 42 -40 43 -40 11 -5 -47 52 -87 80 -95 67z"/>
<path d="M8975 3939 c-3 -4 2 -6 10 -5 21 3 28 13 10 13 -9 0 -18 -4 -20 -8z"/>
<path d="M4790 3925 c7 -8 17 -15 22 -15 6 0 5 7 -2 15 -7 8 -17 15 -22 15 -6
0 -5 -7 2 -15z"/>
<path d="M8930 3905 c-13 -14 -20 -25 -16 -25 5 0 2 -8 -5 -17 -13 -16 -12
-17 4 -4 9 8 15 16 12 19 -3 3 5 16 17 29 12 13 19 23 16 23 -2 0 -15 -11 -28
-25z"/>
<path d="M3750 3917 c0 -3 21 -22 48 -43 45 -36 46 -36 17 -5 -28 30 -65 57
-65 48z"/>
<path d="M3890 3805 c7 -9 15 -13 17 -11 7 7 -7 26 -19 26 -6 0 -6 -6 2 -15z"/>
<path d="M3945 3760 c3 -5 11 -10 16 -10 6 0 7 5 4 10 -3 6 -11 10 -16 10 -6
0 -7 -4 -4 -10z"/>
<path d="M5230 3706 c0 -2 7 -7 16 -10 8 -3 12 -2 9 4 -6 10 -25 14 -25 6z"/>
<path d="M8630 3665 c-11 -13 -10 -14 4 -9 9 3 16 10 16 15 0 13 -6 11 -20 -6z"/>
<path d="M5289 3647 c13 -16 81 -60 81 -52 0 2 -21 18 -47 35 -26 18 -41 25
-34 17z"/>
<path d="M4720 3616 c0 -2 8 -10 18 -17 15 -13 16 -12 3 4 -13 16 -21 21 -21
13z"/>
<path d="M4780 3601 l25 -22 -25 7 c-25 7 -25 7 -6 -15 24 -27 37 -27 33 1 -2
12 -15 28 -28 36 -24 14 -24 14 1 -7z"/>
<path d="M8569 3543 l-24 -28 28 24 c15 14 27 26 27 28 0 8 -8 1 -31 -24z"/>
<path d="M5310 3532 c0 -5 7 -15 15 -22 8 -7 15 -8 15 -2 0 5 -7 15 -15 22 -8
7 -15 8 -15 2z"/>
<path d="M5480 3377 c0 -2 15 -14 33 -27 20 -15 27 -17 18 -6 -13 16 -51 41
-51 33z"/>
<path d="M5490 3347 c0 -3 18 -20 40 -37 22 -17 40 -29 40 -27 0 3 -18 20 -40
37 -22 17 -40 29 -40 27z"/>
<path d="M8203 3286 c-15 -13 -26 -26 -23 -28 3 -2 18 9 35 24 36 34 27 37
-12 4z"/>
<path d="M5655 3200 c21 -22 41 -40 44 -40 3 0 -13 18 -34 40 -21 22 -41 40
-44 40 -3 0 13 -18 34 -40z"/>
<path d="M5743 3142 c15 -16 25 -31 22 -34 -3 -2 2 -5 10 -5 11 0 5 11 -17 34
-17 18 -34 33 -37 33 -3 0 7 -13 22 -28z"/>
<path d="M8105 3140 c-10 -11 -14 -20 -8 -20 5 0 18 9 28 20 10 11 14 20 8 20
-5 0 -18 -9 -28 -20z"/>
<path d="M5790 3086 c0 -2 7 -9 15 -16 9 -7 15 -8 15 -2 0 5 -7 12 -15 16 -8
3 -15 4 -15 2z"/>
<path d="M7998 3044 c-207 -182 -395 -360 -387 -368 3 -3 99 83 215 190 256
240 240 224 231 224 -3 0 -30 -21 -59 -46z"/>
<path d="M7179 2313 c-13 -16 -12 -17 4 -4 9 7 17 15 17 17 0 8 -8 3 -21 -13z"/>
<path d="M7099 2193 c-13 -16 -12 -17 4 -4 16 13 21 21 13 21 -2 0 -10 -8 -17
-17z"/>
<path d="M6469 1553 l-24 -28 28 24 c15 14 27 26 27 28 0 8 -8 1 -31 -24z"/>
</g>
</svg>
